<svg role="img" xmlns="http://www.w3.org/2000/svg" width="48px" height="48px" viewBox="0 0 512 512" aria-hidden="true">
<g fill="#fff">
	<path d="M255.943,326.926c14.059,0,27.385-5.491,37.312-15.481L511.394,93.368
		c-2.53-14.493-15.172-25.471-30.345-25.471H30.837c-15.172,0-27.814,10.978-30.345,25.471l218.077,218.077
		C228.559,321.435,241.822,326.926,255.943,326.926z"></path>
	<path d="M512,145.29l-0.114,0.11v-0.222L319.468,337.596c-17.023,16.961-39.534,26.334-63.525,26.334
		c-23.99,0-46.564-9.373-63.525-26.334L79.588,224.796L0.16,145.236v0.16L0,145.236V413.27c0,17.02,13.814,30.833,30.837,30.833
		H481.05c17.02,0,30.837-13.813,30.837-30.833V256.308L512,145.29z"></path>
</g>
</svg>
